<?xml version="1.0" encoding="UTF-8"?>
<!-- Generator: Adobe Illustrator 16.0.4, SVG Export Plug-In . SVG Version: 6.00 Build 0)  -->
<!DOCTYPE svg PUBLIC "-//W3C//DTD SVG 1.1//EN" "http://www.w3.org/Graphics/SVG/1.1/DTD/svg11.dtd">
<svg version="1.1" id="Layer_1" xmlns="http://www.w3.org/2000/svg" xmlns:xlink="http://www.w3.org/1999/xlink" x="0px" y="0px" width="100px" height="100px" viewBox="0 0 100 100" enable-background="new 0 0 100 100" xml:space="preserve">
<circle fill="#1CB2B0" cx="50" cy="50" r="50"/>
<path fill="#EFC75E" d="M73.512,42.903c-5.434-11.118-16.541-14.892-23.498-14.892c-6.959,0-18.091,3.773-23.524,14.89  c-5.435,11.119-1.058,21.428,4.245,28.301c5.301,6.872,5.863,9.905,6.195,11.59c0.331,1.685-0.731,4.312,1.294,6.131  c2.026,1.82,11.79,2.091,11.79,2.091s9.734-0.271,11.759-2.091c2.024-1.817,0.946-4.446,1.278-6.131  c0.331-1.685,0.886-4.718,6.188-11.59C74.544,64.33,78.945,54.021,73.512,42.903z"/>
<path fill="#DDB857" d="M58.794,51.089c-0.286-0.053-0.579-0.09-0.88-0.09l-0.092,0.01L57,51.093  c-2.299,0.438-4.04,2.482-4.04,4.949v2.965h-7.927v-2.965c0-2.465-1.738-4.509-4.033-4.949l-0.83-0.084l-0.09-0.01  c-0.305,0-0.598,0.037-0.887,0.09C36.818,51.479,35,53.521,35,56.007c0,2.763,2.238,5,5,5h3v29.992h2V61.007h8v29.992h2V61.007h3  c2.762,0,5-2.237,5-5C63,53.52,61.176,51.471,58.794,51.089z M37,56.007c0-1.626,1.297-2.942,2.912-2.989h0.168  c1.642,0,2.973,2.258,2.973,5.043l0.01,0.946H40C38.344,59.007,37,57.663,37,56.007z M58,59.007h-3.068l0.01-0.946  c0-2.785,1.33-5.043,2.975-5.043h0.174c1.613,0.047,2.91,1.364,2.91,2.989C61,57.663,59.657,59.007,58,59.007z"/>
<path fill="#FFFFFF" d="M50,7.999c-1.104,0-2,0.896-2,2v8c0,1.104,0.896,2,2,2c1.104,0,2-0.896,2-2v-8  C52,8.895,51.104,7.999,50,7.999z M67.773,12.138c-1.013-0.408-2.17,0.061-2.59,1.049l-3.031,7.147  c-0.42,0.987,0.062,2.118,1.072,2.526c1.012,0.408,2.172-0.061,2.59-1.048l3.033-7.147C69.268,13.679,68.786,12.547,67.773,12.138z   M34.815,13.187c-0.419-0.988-1.578-1.457-2.59-1.049c-1.012,0.409-1.492,1.541-1.073,2.527l3.032,7.147  c0.419,0.987,1.578,1.456,2.59,1.048c1.012-0.408,1.492-1.539,1.073-2.526L34.815,13.187z M81.439,22.53  c-0.729-0.729-1.908-0.729-2.638,0l-5.271,5.271c-0.729,0.729-0.729,1.908,0,2.637c0.729,0.728,1.908,0.728,2.637,0l5.271-5.272  C82.168,24.438,82.168,23.259,81.439,22.53z M21.196,22.53c-0.728-0.729-1.908-0.729-2.636,0c-0.729,0.729-0.729,1.908,0,2.637  l5.271,5.272c0.729,0.728,1.909,0.728,2.637,0c0.729-0.729,0.729-1.909,0-2.637L21.196,22.53z"/>
<path fill="#D7B354" d="M41.224,88.923c-2.025-1.817-0.963-4.446-1.294-6.131c-0.332-1.685-0.895-4.718-6.195-11.59  c-5.303-6.873-9.68-17.183-4.245-28.301c5.059-10.349,15.053-14.33,22.023-14.83c-0.518-0.037-1.021-0.06-1.5-0.06  c-6.959,0-18.091,3.773-23.524,14.89c-5.435,11.119-1.058,21.428,4.245,28.301c5.301,6.872,5.863,9.905,6.195,11.59  c0.331,1.685-0.731,4.312,1.294,6.131c2.026,1.82,11.79,2.091,11.79,2.091s0.584-0.018,1.498-0.068  C48.693,90.787,42.754,90.297,41.224,88.923z"/>
<path fill="#FFFFFF" d="M59.794,51.089c-0.286-0.053-0.579-0.09-0.88-0.09l-0.092,0.01L58,51.093  c-2.299,0.438-4.04,2.482-4.04,4.949v2.965h-7.927v-2.965c0-2.465-1.738-4.509-4.033-4.949l-0.83-0.084l-0.09-0.01  c-0.305,0-0.598,0.037-0.887,0.09C37.818,51.479,36,53.521,36,56.007c0,2.763,2.238,5,5,5h3v29.992h2V61.007h8v29.992h2V61.007h3  c2.762,0,5-2.237,5-5C64,53.52,62.176,51.471,59.794,51.089z M38,56.007c0-1.626,1.297-2.942,2.912-2.989h0.168  c1.642,0,2.973,2.258,2.973,5.043l0.01,0.946H41C39.344,59.007,38,57.663,38,56.007z M59,59.007h-3.068l0.01-0.946  c0-2.785,1.33-5.043,2.975-5.043h0.174c1.613,0.047,2.91,1.364,2.91,2.989C62,57.663,60.657,59.007,59,59.007z"/>
<path fill="#EFEFEF" d="M61.771,87.922c-2.023,1.821-11.758,2.092-11.758,2.092s-9.764-0.271-11.79-2.092  c-0.644-0.577-0.974-1.236-1.138-1.923H37v12.282c4.146,1.113,8.502,1.718,13,1.718s8.854-0.604,13-1.718V85.999h-0.093  C62.745,86.686,62.416,87.345,61.771,87.922z"/>
</svg>