<?xml version="1.0" encoding="UTF-8"?>
<!-- Generator: Adobe Illustrator 16.0.4, SVG Export Plug-In . SVG Version: 6.00 Build 0)  -->
<!DOCTYPE svg PUBLIC "-//W3C//DTD SVG 1.1//EN" "http://www.w3.org/Graphics/SVG/1.1/DTD/svg11.dtd">
<svg version="1.1" id="Layer_1" xmlns="http://www.w3.org/2000/svg" xmlns:xlink="http://www.w3.org/1999/xlink" x="0px" y="0px" width="100px" height="100px" viewBox="0 0 100 100" enable-background="new 0 0 100 100" xml:space="preserve">
<path fill="#1CB2B0" d="M50,0C22.386,0,0,22.386,0,50s22.386,50,50,50c27.613,0,50-22.386,50-50S77.613,0,50,0z"/>
<g>
	<g>
		<g>
			<defs>
				<circle id="SVGID_1_" cx="50" cy="50" r="50"/>
			</defs>
			<clipPath id="SVGID_2_">
				<use xlink:href="#SVGID_1_" overflow="visible"/>
			</clipPath>
			<g clip-path="url(#SVGID_2_)">
				<path fill="#E4E7E7" d="M19,56h82c1.656,0,3,1.343,3,3v51c0,1.657-1.344,3-3,3H19c-1.657,0-3-1.343-3-3V59      C16,57.343,17.343,56,19,56z"/>
				<path fill="#D8DBDB" d="M16,79h80v21H16V79z"/>
				<path fill="#324D5B" d="M36,50h65c1.656,0,3,1.344,3,3v14c0,1.657-1.344,3.001-3,3.001H36c-1.657,0-3-1.344-3-3.001V53      C33,51.344,34.343,50,36,50z"/>
				<path fill="#283E49" d="M43,56.999h56c1.104,0,2,0.896,2,2.001v2.001c0,1.104-0.896,1.999-2,1.999H43c-1.104,0-2-0.896-2-1.999      V59C41,57.895,41.896,56.999,43,56.999z"/>
				<path fill="#1CB2B0" d="M36,86c1.657,0,3,1.343,3,3s-1.343,3-3,3s-3-1.343-3-3S34.343,86,36,86z"/>
				<path fill="#324D5B" d="M46,86c1.657,0,3,1.343,3,3s-1.343,3-3,3s-3-1.343-3-3S44.343,86,46,86z"/>
				<path fill="#CCD0D2" d="M45,20h-5c-2.761,0-5,2.239-5,5v6c0,2.762,2.239,5,5,5h5c2.761,0,5-2.238,5-5v-6      C50,22.239,47.761,20,45,20z"/>
				<path fill="#F3F3F3" d="M97,20H40c2.762,0,5,2.239,5,5v35h55V23C100,21.343,98.656,20,97,20z"/>
				<path fill="#DFE1E2" d="M54.5,31h45c0.828,0,1.5-0.671,1.5-1.5s-0.672-1.5-1.5-1.5h-45c-0.828,0-1.5,0.671-1.5,1.5      S53.672,31,54.5,31z M99.5,35h-45c-0.828,0-1.5,0.672-1.5,1.5c0,0.829,0.672,1.5,1.5,1.5h45c0.828,0,1.5-0.672,1.5-1.5      S100.328,35,99.5,35z M99.5,42h-45c-0.828,0-1.5,0.672-1.5,1.5s0.672,1.5,1.5,1.5h45c0.828,0,1.5-0.672,1.5-1.5      S100.328,42,99.5,42z M99.5,49h-45c-0.828,0-1.5,0.671-1.5,1.5c0,0.828,0.672,1.5,1.5,1.5h45c0.828,0,1.5-0.672,1.5-1.5      C101,49.671,100.328,49,99.5,49z"/>
			</g>
		</g>
	</g>
</g>
</svg>